<svg width="179" height="38" viewBox="0 0 179 38" fill="none" xmlns="http://www.w3.org/2000/svg">
<g clip-path="url(#clip0_161_7845)">
<path d="M120.526 0.457031H117.704V18.6376H120.526V0.457031Z" fill="#2C2C2C"/>
<path d="M143.689 3.18261V0.453125H134.586V0.457133V18.6377H143.777V15.8882H137.348V10.9142H143.476V8.18468H137.348V3.18261H143.689Z" fill="#2C2C2C"/>
<path d="M156.199 0.453125H145.573V3.18261H149.477V18.6377H152.299V3.18261H156.199V0.453125Z" fill="#2C2C2C"/>
<path d="M159.773 12.0122L161.477 3.30666L163.148 12.0122H159.773ZM164.451 18.6375H167.18L163.613 0.460938H159.352L155.721 18.6375H158.451L159.22 14.7898H163.693L164.451 18.6375Z" fill="#2C2C2C"/>
<path d="M130.142 9.64351C128.911 8.76174 127.316 7.76774 126.474 7.17455C125.633 6.58136 125.2 5.99217 125.2 5.09437C125.2 3.82381 126.234 2.78973 127.505 2.78973C128.659 2.78973 129.617 3.64345 129.781 4.75368L132.418 4.05628C131.937 1.78371 129.917 0.0722656 127.505 0.0722656C124.735 0.0722656 122.482 2.3248 122.482 5.09437C122.482 6.77374 123.308 8.27677 124.803 9.33089C126.086 10.2327 127.44 11.0824 128.234 11.6315C129.356 12.4091 129.773 12.9782 129.773 13.9001C129.773 15.1706 128.739 16.2047 127.468 16.2047C126.314 16.2047 125.356 15.351 125.192 14.2408L122.555 14.9382C123.036 17.2107 125.056 18.9222 127.468 18.9222C130.238 18.9222 132.491 16.6696 132.491 13.9001C132.495 12.1285 131.729 10.7818 130.142 9.64351Z" fill="#2C2C2C"/>
<path d="M176.27 0.457031V12.0844L171.657 0.457031H168.747V18.6376H171.477V7.01021L176.09 18.6376H179V0.457031H176.27Z" fill="#2C2C2C"/>
<path d="M106.799 0.457031H103.977V18.6376H106.799V0.457031Z" fill="#2C2C2C"/>
<path d="M17.9242 0.457031H15.1025V18.6376H17.9242V0.457031Z" fill="#2C2C2C"/>
<path d="M30.6815 0.457031H20.0562V3.06628H23.9199V18.6376H26.8658V3.06628H30.6815V0.457031Z" fill="#2C2C2C"/>
<path d="M98.5581 0.453125V7.78387H93.7324V0.453125H91.0029V18.6337H93.7324V10.7819H98.5581V18.6337H101.288V0.453125H98.5581Z" fill="#2C2C2C"/>
<path d="M67.083 18.6376L60.8625 8.93809L66.8225 0.457031H63.5158L59.0428 6.87794V0.457031H56.3574V18.6376H59.0428V11.3509L63.6521 18.6376H67.083Z" fill="#2C2C2C"/>
<path d="M39.5117 9.52315C38.2812 8.64138 36.686 7.64738 35.8443 7.05419C35.0026 6.46099 34.5697 5.87181 34.5697 4.974C34.5697 3.70345 35.6038 2.71747 36.8703 2.71747C38.0247 2.71747 38.9826 3.57118 39.1469 4.68142L41.7802 3.98401C41.2993 1.71144 39.2792 0 36.8663 0C34.0968 0 31.8442 2.25253 31.8442 5.0221C31.8442 6.70148 32.6699 8.2045 34.1689 9.25862C35.4475 10.1604 36.8062 11.0101 37.5998 11.5592C38.7261 12.3368 39.1389 12.906 39.1389 13.8278C39.1389 15.0984 38.1048 16.1324 36.8343 16.1324C35.68 16.1324 34.722 15.2787 34.5577 14.1685L31.9204 14.8659C32.4014 17.1385 34.4214 18.8499 36.8343 18.8499C39.6038 18.8499 41.8564 16.5974 41.8564 13.8278C41.8644 12.0562 41.0989 10.6614 39.5117 9.52315Z" fill="#2C2C2C"/>
<path d="M86.8743 9.61519C85.6439 8.73342 84.0487 7.73942 83.207 7.14623C82.3653 6.55304 81.9324 5.96385 81.9324 5.06605C81.9324 3.79549 82.9665 2.76141 84.233 2.76141C85.3874 2.76141 86.3453 3.61513 86.5096 4.72536L89.1469 4.02796C88.666 1.75539 86.6459 0.0439453 84.233 0.0439453C81.4635 0.0439453 79.2109 2.29648 79.2109 5.06605C79.2109 6.74542 80.0366 8.24844 81.5356 9.30256C82.8182 10.2044 84.1729 11.0541 84.9665 11.6032C86.0888 12.3808 86.5056 12.9459 86.5056 13.8718C86.5056 15.1423 85.4715 16.1764 84.201 16.1764C83.0467 16.1764 82.0887 15.3227 81.9244 14.2124L79.2871 14.9098C79.7681 17.1824 81.7881 18.8939 84.201 18.8939C86.9705 18.8939 89.2231 16.6413 89.2231 13.8718C89.2271 12.1002 88.4615 10.7495 86.8743 9.61519Z" fill="#2C2C2C"/>
<path d="M51.055 0.457031L51.0631 13.3309C51.0631 15.3069 50.033 16.2047 48.7584 16.2047C47.4839 16.2047 46.4578 15.3069 46.4578 13.3309L46.4658 0.457031H43.7363V13.4191C43.7363 16.8981 45.9728 18.9262 48.7624 18.9262C51.552 18.9262 53.7885 16.85 53.7885 13.375V0.457031H51.055Z" fill="#2C2C2C"/>
<path d="M74.6467 13.3307C74.6467 15.3066 73.6166 16.2044 72.346 16.2044C71.0715 16.2044 70.0454 15.3066 70.0454 13.3307V5.6392C70.0454 3.66322 71.0755 2.76542 72.346 2.76542C73.6206 2.76542 74.6467 3.66322 74.6467 5.6392V13.3307ZM72.342 0.0439453C69.5524 0.0439453 67.3159 2.07603 67.3159 5.55102V13.4188C67.3159 16.8978 69.5524 18.9259 72.342 18.9259C75.1316 18.9259 77.3681 16.8497 77.3681 13.3748V5.59511C77.3681 2.12012 75.1356 0.0439453 72.342 0.0439453Z" fill="#2C2C2C"/>
<path d="M9.22656 0.457031L6.13233 7.17454L3.03811 0.457031H0V18.6376H2.76556V5.7637L4.83372 10.3249H7.43094L9.4991 5.7637V18.6376H12.2687V0.457031H9.22656Z" fill="#2C2C2C"/>
</g>
<path d="M56.866 29.824L55.163 30.24C54.916 28.836 54.188 28.108 53.044 28.108C51.549 28.108 50.509 29.408 50.509 31.982C50.509 34.543 51.575 35.856 53.044 35.856C54.253 35.856 54.981 35.167 55.267 33.698L56.918 34.205C56.385 36.285 55.085 37.208 53.031 37.208C50.418 37.208 48.65 35.323 48.65 31.995C48.65 28.654 50.431 26.756 53.031 26.756C55.098 26.756 56.45 27.913 56.866 29.824ZM62.0501 26.769C64.6371 26.769 66.3661 28.641 66.3661 31.982C66.3661 35.31 64.6241 37.221 62.0371 37.221C59.4501 37.221 57.7211 35.336 57.7211 32.008C57.7211 28.667 59.4761 26.769 62.0501 26.769ZM62.0501 28.121C60.5681 28.121 59.5801 29.408 59.5801 31.995C59.5801 34.569 60.5681 35.869 62.0501 35.869C63.5321 35.869 64.5071 34.569 64.5071 31.995C64.5071 29.408 63.5321 28.121 62.0501 28.121ZM77.9185 26.938V37.026H76.2415V31.93C76.2415 30.669 76.2545 29.564 76.2675 28.368H76.0855C75.8255 29.525 75.5915 30.565 75.2535 31.8L73.8885 37.026H71.8345L70.5085 31.865C70.1965 30.695 69.9495 29.603 69.6505 28.368H69.4685C69.4945 29.538 69.5075 30.708 69.5075 31.956V37.026H67.9605V26.938H70.8075L72.0815 32.086C72.3415 33.139 72.6015 34.309 72.8095 35.414H72.9915C73.2645 34.309 73.4725 33.269 73.7715 32.112L75.0585 26.938H77.9185ZM90.0364 26.938V37.026H88.3594V31.93C88.3594 30.669 88.3724 29.564 88.3854 28.368H88.2034C87.9434 29.525 87.7094 30.565 87.3714 31.8L86.0064 37.026H83.9524L82.6264 31.865C82.3144 30.695 82.0674 29.603 81.7684 28.368H81.5864C81.6124 29.538 81.6254 30.708 81.6254 31.956V37.026H80.0784V26.938H82.9254L84.1994 32.086C84.4594 33.139 84.7194 34.309 84.9274 35.414H85.1094C85.3824 34.309 85.5904 33.269 85.8894 32.112L87.1764 26.938H90.0364ZM99.8273 26.938V33.542C99.8273 35.96 98.3453 37.208 96.0183 37.208C93.6783 37.208 92.1703 35.999 92.1703 33.542V26.938H93.9253V33.516C93.9253 35.167 94.7183 35.869 96.0573 35.869C97.3833 35.869 98.1893 35.167 98.1893 33.516V26.938H99.8273ZM109.701 26.938V37.026H107.556L105.112 31.826C104.527 30.565 104.124 29.629 103.669 28.498H103.487C103.552 29.694 103.578 30.89 103.578 32.138V37.026H101.966V26.938H104.605L106.698 31.41C107.27 32.671 107.66 33.698 108.037 34.868H108.219C108.141 33.633 108.089 32.528 108.089 31.176V26.938H109.701ZM113.63 26.938V37.026H111.862V26.938H113.63ZM122.733 26.938V28.355H119.73V37.026H117.962V28.355H114.985V26.938H122.733ZM131.498 26.938L128.196 32.853V37.026H126.428V32.853L123.178 26.938H125.128L127.13 30.695C127.26 30.929 127.325 31.072 127.442 31.306C127.559 31.059 127.624 30.929 127.767 30.682L129.704 26.938H131.498Z" fill="#2C2C2C"/>
<defs>
<clipPath id="clip0_161_7845">
<rect width="179" height="18.9261" fill="white"/>
</clipPath>
</defs>
</svg>
